# xmcd CD database file
#
# Track frame offsets:
#	150
#	12593
#	30998
#	52720
#	74511
#	86870
#	109219
#	131915
#	146098
#	167289
#	190097
#	213240
#	232523
#	253687
#	274753
#
# Disc length: 3984 seconds
#
# Revision: 5
# Processed by: cddbd v1.5.1PL0 Copyright (c) Steve Scherf et al.
# Submitted via: CDex 1.51
#
DISCID=cb0f8e0f
DTITLE=Joshi Juni Gakubou - Beautiful Enargy
DYEAR=1900
DGENRE=
TTITLE0=奇跡
TTITLE1=自由
TTITLE2=世界に一つだけの花
TTITLE3=香格里拉
TTITLE4=五拍(Take Five)
TTITLE5=川の流れのように
TTITLE6=女児夢
TTITLE7=阿拉木汗
TTITLE8=劉三姐
TTITLE9=ラブストーリーは突然に
TTITLE10=山水
TTITLE11=七拍
TTITLE12=紫禁城
TTITLE13=無詞(No Words)
TTITLE14=地上の星
EXTD=
EXTT0=
EXTT1=
EXTT2=
EXTT3=
EXTT4=
EXTT5=
EXTT6=
EXTT7=
EXTT8=
EXTT9=
EXTT10=
EXTT11=
EXTT12=
EXTT13=
EXTT14=
PLAYORDER=
